<svg width="10" height="8" viewBox="0 0 10 8" fill="none" xmlns="http://www.w3.org/2000/svg">
<path id="Vector" fill-rule="evenodd" clip-rule="evenodd" d="M0.65509 3.95009C0.65509 3.81561 0.711187 3.68664 0.811039 3.59155C0.910891 3.49646 1.04632 3.44303 1.18753 3.44303H7.35639L5.07009 1.26677C4.97011 1.17156 4.91394 1.04243 4.91394 0.907777C4.91394 0.773129 4.97011 0.643996 5.07009 0.548785C5.17007 0.453574 5.30567 0.400085 5.44706 0.400085C5.58845 0.400085 5.72405 0.453574 5.82402 0.548785L9.01867 3.59109C9.06825 3.63819 9.10759 3.69415 9.13443 3.75575C9.16127 3.81735 9.17509 3.88339 9.17509 3.95009C9.17509 4.01678 9.16127 4.08282 9.13443 4.14442C9.10759 4.20602 9.06825 4.26198 9.01867 4.30908L5.82402 7.35139C5.72405 7.4466 5.58845 7.50008 5.44706 7.50008C5.30567 7.50008 5.17007 7.4466 5.07009 7.35139C4.97011 7.25618 4.91394 7.12704 4.91394 6.99239C4.91394 6.85775 4.97011 6.72861 5.07009 6.6334L7.35639 4.45714H1.18753C1.04632 4.45714 0.910891 4.40372 0.811039 4.30863C0.711187 4.21353 0.65509 4.08456 0.65509 3.95009Z" fill="white"/>
</svg>
