<svg width="17" height="11" viewBox="0 0 17 11" fill="none" xmlns="http://www.w3.org/2000/svg">
<path fill-rule="evenodd" clip-rule="evenodd" d="M16.2957 0.201934C16.3604 0.265782 16.4118 0.341632 16.4469 0.425138C16.482 0.508644 16.5 0.598165 16.5 0.688575C16.5 0.778985 16.482 0.868507 16.4469 0.952013C16.4118 1.03552 16.3604 1.11137 16.2957 1.17522L6.55782 10.7981C6.4932 10.8621 6.41645 10.9129 6.33194 10.9475C6.24744 10.9822 6.15685 11 6.06536 11C5.97387 11 5.88328 10.9822 5.79877 10.9475C5.71427 10.9129 5.63751 10.8621 5.5729 10.7981L0.703982 5.98664C0.573374 5.85758 0.5 5.68253 0.5 5.5C0.5 5.31747 0.573374 5.14243 0.703982 5.01336C0.83459 4.88429 1.01173 4.81179 1.19644 4.81179C1.38115 4.81179 1.55829 4.88429 1.6889 5.01336L6.06536 9.33952L15.3107 0.201934C15.3754 0.137924 15.4521 0.0871387 15.5366 0.0524876C15.6211 0.0178364 15.7117 0 15.8032 0C15.8947 0 15.9853 0.0178364 16.0698 0.0524876C16.1543 0.0871387 16.231 0.137924 16.2957 0.201934Z" fill="white"/>
</svg>
