<svg width="10" height="14" viewBox="0 0 10 14" fill="none" xmlns="http://www.w3.org/2000/svg">
<path d="M4.36719 12.8711C4.5957 13.2266 5.12891 13.2266 5.35742 12.8711C9.06445 7.53906 9.75 6.98047 9.75 5C9.75 2.30859 7.56641 0.125 4.875 0.125C2.1582 0.125 0 2.30859 0 5C0 6.98047 0.660156 7.53906 4.36719 12.8711ZM4.875 7.03125C3.73242 7.03125 2.84375 6.14258 2.84375 5C2.84375 3.88281 3.73242 2.96875 4.875 2.96875C5.99219 2.96875 6.90625 3.88281 6.90625 5C6.90625 6.14258 5.99219 7.03125 4.875 7.03125Z" fill="#4C5A66"/>
</svg>
