<svg width="29" height="28" viewBox="0 0 29 28" fill="none" xmlns="http://www.w3.org/2000/svg">
<path d="M15.2601 0.544035C14.7343 0.0177516 13.8811 0.0177516 13.3544 0.544035C12.8281 1.0699 12.8281 1.92347 13.3544 2.44975L23.5609 12.6562H1.44264C0.696188 12.6562 0.0907288 13.2616 0.0907288 14.0081C0.0907288 14.755 0.696188 15.36 1.44264 15.36H23.5473L13.3409 25.5664C13.0877 25.8188 12.9454 26.1622 12.9454 26.5195C12.9454 26.8773 13.0877 27.2198 13.3409 27.4726C13.5941 27.7279 13.9408 27.8693 14.3007 27.8646C14.6593 27.8629 15.0036 27.7224 15.2601 27.4726L27.7648 14.9684C28.0192 14.7135 28.1611 14.3676 28.1573 14.0081C28.1547 13.6495 28.0142 13.3065 27.7648 13.0487L15.2601 0.544035Z" fill="#FFFEFE"/>
</svg>
