<svg width="12" height="14" fill="none" xmlns="http://www.w3.org/2000/svg"><path d="M.305 5A.309.309 0 000 5.305v6.601c0 .686.533 1.219 1.219 1.219h8.937a1.22 1.22 0 001.219-1.219V5.305A.328.328 0 0011.07 5H.305zm11.07-1.117v-.914c0-.66-.559-1.219-1.219-1.219H8.937V.43a.328.328 0 00-.304-.305H7.617a.309.309 0 00-.304.305v1.32h-3.25V.43a.328.328 0 00-.305-.305H2.742a.309.309 0 00-.304.305v1.32h-1.22A1.22 1.22 0 000 2.969v.914c0 .178.127.304.305.304H11.07a.309.309 0 00.305-.304z" fill="#4C5A66"/></svg>